{"title":"Sex And The City V2 New Audio CAM MP4 AAC FEEL-FREE","uid":5633636,"size":1363413762,"categoryP":"video","categoryS":"movies","magnet":"?xt=urn:btih:0c4430ebf08b8ebd35bebcf194dd09a33824c176&amp;dn=Sex+And+The+City+V2+New+Audio+CAM+MP4+AAC+FEEL-FREE&amp;tr=udp%3A%2F%2Ftracker.openbittorrent.com%3A80&amp;tr=udp%3A%2F%2Fopen.demonii.com%3A1337&amp;tr=udp%3A%2F%2Ftracker.coppersurfer.tk%3A6969&amp;tr=udp%3A%2F%2Fexodus.desync.com%3A6969","seeders":0,"leechers":0,"uploader":"hiest","files":9,"time":1276791753,"description":"Genre:Comedy/Drama/Romance\nLanguage:English\nIMDb:http://www.imdb.com/title/tt1261945/\nSource Video:Relizlab.Thanks\nSource Audio:PrisM.Thanks\nEncoder: Tony2\n...............................................\nGeneral\nComplete name : Sex And The City V2 New Audio CAM MP4 AAC FEEL-FREE\nFormat : MPEG-4\nFormat profile : Base Media\nCodec ID : isom\nFile size : 1.27 GiB\nDuration : 2h 16mn\nOverall bit rate : 1 333 Kbps\n................................................\nVideo\nID : 1\nFormat : MPEG-4 Visual\nFormat profile : Simple@L1\nFormat settings, BVOP : No\nFormat settings, QPel : No\nFormat settings, GMC : No warppoints\nFormat settings, Matrix : Default (H.263)\nCodec ID : 20\nDuration : 2h 16mn\nBit rate mode : Variable\nBit rate : 1 200 Kbps\nWidth : 704 pixels\nHeight : 304 pixels\nDisplay aspect ratio : 2.35:1\nFrame rate mode : Constant\nFrame rate : 25.000 fps\nResolution : 24 bits\nColorimetry : 4:2:0\nScan type : Progressive\nBits/(Pixel*Frame) : 0.224\nStream size : 1.14 GiB (90%)\nWriting library : Lavc51.40.4\n................................................\nAudio\nID : 2\nFormat : AAC\nFormat/Info : Advanced Audio Codec\nFormat version : Version 4\nFormat profile : LC\nFormat settings, SBR : No\nCodec ID : 40\nDuration : 2h 16mn\nBit rate mode : Variable\nBit rate : 128 Kbps\nChannel(s) : 2 channels\nChannel positions : L R\nSampling rate : 48.0 KHz\nResolution : 16 bits\nStream size : 125 MiB (10%)\n................................................\nPlot: \nWhile wrestling with the pressures of life, love, and work in Manhattan, Carrie, Miranda,\nand Charlotte join Samantha for a trip to Morocco, where Samantha's ex is filming a new movie\n...................................................\nScreenshots: &lt;a href=&quot;\nhttp://postimg.com/image/17000/16483.jpg&quot; rel=&quot;nofollow&quot; target=&quot;_NEW&quot;&gt;\nhttp://postimg.com/image/17000/16483.jpg&lt;/a&gt; &lt;a href=&quot;\nhttp://postimg.com/image/17000/16484.jpg&quot; rel=&quot;nofollow&quot; target=&quot;_NEW&quot;&gt;\nhttp://postimg.com/image/17000/16484.jpg&lt;/a&gt;","torrent":{"xt":"urn:btih:0c4430ebf08b8ebd35bebcf194dd09a33824c176","amp;dn":"Sex+And+The+City+V2+New+Audio+CAM+MP4+AAC+FEEL-FREE","amp;tr":["udp%3A%2F%2Ftracker.openbittorrent.com%3A80","udp%3A%2F%2Fopen.demonii.com%3A1337","udp%3A%2F%2Ftracker.coppersurfer.tk%3A6969","udp%3A%2F%2Fexodus.desync.com%3A6969"],"infoHash":"0c4430ebf08b8ebd35bebcf194dd09a33824c176","infoHashBuffer":{"type":"Buffer","data":[12,68,48,235,240,139,142,189,53,190,188,241,148,221,9,163,56,36,193,118]},"announce":[],"urlList":[]}}